<?xml version="1.0" encoding="utf-8"?>
<!-- Generator: Adobe Illustrator 24.1.0, SVG Export Plug-In . SVG Version: 6.00 Build 0)  -->
<svg version="1.1" id="favi" xmlns="http://www.w3.org/2000/svg" xmlns:xlink="http://www.w3.org/1999/xlink" x="0px" y="0px"
	 viewBox="0 0 16 16" style="enable-background:new 0 0 16 16;" xml:space="preserve">
<style type="text/css">
	.st0{fill:#9DDBF1;}
	.st1{fill:#F49AC1;}
	.st2{fill:#DECEE5;}
</style>
<g>
	<path class="st0" d="M8.92,13.24L8.88,5.04l0-0.49C8.69,2.54,7.83,1.22,6.53,1.22c-1.48,0-2.91,2.73-2.91,2.73
		c0.81-1.1,1.08-1.11,1.81-1.13C6.85,2.78,7.21,4.4,7.21,6.64v6.1c-0.05,1.41,2.84,2.04,2.84,2.04C9.49,14.43,8.89,14.09,8.92,13.24
		z"/>
</g>
<g>
	<path class="st1" d="M14.29,13.24l-0.04-8.69c-0.19-2.01-1.05-3.33-2.35-3.33c-1.48,0-2.91,2.73-2.91,2.73
		c0.81-1.1,1.08-1.11,1.81-1.13c1.42-0.04,1.78,1.59,1.78,3.82v6.1c-0.05,1.41,2.84,2.04,2.84,2.04
		C14.86,14.43,14.26,14.09,14.29,13.24z"/>
</g>
<circle class="st2" cx="1.72" cy="2.63" r="1.15"/>
</svg>
